<?xml version="1.0" standalone="no"?><!DOCTYPE svg PUBLIC "-//W3C//DTD SVG 1.1//EN"
    "http://www.w3.org/Graphics/SVG/1.1/DTD/svg11.dtd">
<svg width="200" height="200" viewBox="0 0 200 200" version="1.1" xmlns="http://www.w3.org/2000/svg">
    <defs>
        <style type="text/css"><![CDATA[
@font-face { font-family: ifont; src: url("//at.alicdn.com/t/font_1442373896_4754455.eot?#iefix") format("embedded-opentype"), url("//at.alicdn.com/t/font_1442373896_4754455.woff") format("woff"), url("//at.alicdn.com/t/font_1442373896_4754455.ttf") format("truetype"), url("//at.alicdn.com/t/font_1442373896_4754455.svg#ifont") format("svg"); }

]]></style>
    </defs>
    <g class="transform-group">
        <g transform="scale(0.1953125, 0.1953125)">
            <path
                d="M831.618032 397.637079l-19.902984 0L811.715048 301.592381c0-0.601397-0.097524-1.202794-0.170667-1.812317-0.032508-3.811556-1.251556-7.558095-3.860317-10.524444L647.858794 106.682921c-0.048762-0.048762-0.097524-0.065016-0.130032-0.113778-0.950857-1.064635-2.064254-1.950476-3.23454-2.714413-0.34946-0.235683-0.698921-0.43073-1.064635-0.633905-1.015873-0.552635-2.096762-1.015873-3.210159-1.349079-0.300698-0.08127-0.568889-0.203175-0.869587-0.284444-1.202794-0.284444-2.462476-0.463238-3.730286-0.463238L242.826159 101.124063c-17.936254 0-32.507937 14.587937-32.507937 32.507937l0 263.996952L190.415238 397.628952c-25.656889 0-46.461968 20.796952-46.461968 46.461968l0 241.615238c0 25.648762 20.805079 46.461968 46.461968 46.461968l19.902984 0 0 165.400381c0 17.92 14.571683 32.507937 32.507937 32.507937l536.380952 0c17.92 0 32.507937-14.587937 32.507937-32.507937L811.715048 732.176254l19.902984 0c25.656889 0 46.461968-20.813206 46.461968-46.461968l0-241.615238C878.08 418.434032 857.274921 397.637079 831.618032 397.637079zM242.826159 133.640127l376.539429 0 0 166.31873c0 8.980317 7.281778 16.253968 16.253968 16.253968l143.587556 0 0 81.432381-536.380952 0L242.826159 133.640127zM606.541206 440.758857 524.775619 683.495619l-64.097524 0-77.791492-242.736762 60.14781 0 29.525333 102.635683c8.289524 28.810159 15.847619 56.539429 21.609651 86.788063l1.080889 0c6.111492-29.175873 13.677714-57.977905 21.959111-85.707175l30.980063-103.724698L606.541206 440.75073zM199.566222 672.329143l11.158349-45.381079c14.76673 7.558095 37.45727 15.124317 60.862984 15.124317 25.209905 0 38.538159-10.435048 38.538159-26.282667 0-15.124317-11.53219-23.771429-40.708063-34.214603-40.334222-14.043429-66.616889-36.368254-66.616889-71.655619 0-41.423238 34.57219-73.110349 91.826794-73.110349 27.371683 0 47.542857 5.753905 61.943873 12.239238l-12.231111 44.30019c-9.728-4.68927-27.005968-11.524063-50.785524-11.524063-23.763302 0-35.295492 10.808889-35.295492 23.405714 0 15.490032 13.677714 22.341079 45.023492 34.214603 42.84546 15.847619 63.016635 38.172444 63.016635 72.378921 0 40.699937-31.321397 75.272127-97.962667 75.272127C240.615619 687.095873 213.23581 679.895365 199.566222 672.329143zM779.207111 888.766984l-536.380952 0L242.826159 732.176254l536.380952 0L779.207111 888.766984zM832.34946 672.329143c-16.920381 5.753905-48.965079 13.693968-81.017905 13.693968-44.30019 0-76.353016-11.174603-98.685968-32.768-22.332952-20.886349-34.564063-52.589714-34.214603-88.234667 0.373841-80.676571 59.075048-126.772825 138.662603-126.772825 31.321397 0 55.45854 6.127746 67.34019 11.881651l-11.53219 43.95073c-13.328254-5.762032-29.874794-10.459429-56.531302-10.459429-45.746794 0-80.310857 25.933206-80.310857 78.514794 0 50.062222 31.321397 79.587556 76.353016 79.587556 12.604952 0 22.682413-1.446603 26.997841-3.600254L779.410286 587.337143l-37.432889 0 0-42.853587 90.372063 0L832.34946 672.329143z"
                fill="#272636"></path>
        </g>
    </g>
</svg>
